<svg height="512pt" viewBox="0 0 512 512" width="512pt" xmlns="http://www.w3.org/2000/svg"><path d="m420.179688 166.886719v179.097656c0 17.410156-14.121094 31.523437-31.53125 31.523437h-265.304688c-17.40625 0-31.519531-14.113281-31.519531-31.523437v-179.097656c0-4.570313.945312-8.921875 2.644531-12.859375 4.980469-11.519532 16.445312-19.589844 29.796875-19.589844h263.464844c17.917969 0 32.449219 14.527344 32.449219 32.449219zm0 0" fill="#fec970"/><path d="m185.839844 246.226562-94.015625-78.28125v-1.058593c0-17.917969 14.519531-32.445313 32.441406-32.445313h54.003906c-57.316406-.003906-51.867187 39.960938 7.570313 111.785156zm0 0" fill="#fba028"/><path d="m382.980469 198.917969-89.015625 74.117187c-21.996094 18.320313-53.933594 18.320313-75.933594 0l-89.007812-74.117187-2.1875-1.820313-32.363282-43.070312c-1.703125 3.9375-2.648437 8.289062-2.648437 12.859375v179.097656c0 17.410156 14.113281 31.523437 31.523437 31.523437h133.992188s-40.949219-4.753906-75.941406-18.15625c-28.550782-10.933593-52.375-40.011718-52.375-70.582031v-40.855469c0-11.003906 12.828124-17.015624 21.285156-9.976562l67.722656 56.386719c22 18.320312 53.9375 18.320312 75.933594 0l89.015625-74.113281 37.195312-30.972657v-21.292969zm0 0" fill="#fba028"/><path d="m326.972656 142.042969h60.757813c12.890625 0 23.511719 9.867187 24.722656 22.441406l-123.359375 102.707031c-19.171875 15.972656-47.011719 15.972656-66.195312 0l-123.355469-102.710937c1.214843-12.574219 11.835937-22.4375 24.722656-22.4375h172.289063c4.203124 0 7.605468-3.40625 7.605468-7.605469s-3.402344-7.601562-7.605468-7.601562h-172.289063c-22.082031 0-40.050781 17.964843-40.050781 40.046874v123.839844c0 4.199219 3.40625 7.605469 7.605468 7.605469 4.199219 0 7.605469-3.40625 7.605469-7.605469v-106.550781l113.742188 94.703125c12.410156 10.335938 27.617187 15.503906 42.832031 15.503906 15.207031 0 30.421875-5.167968 42.828125-15.5l113.742187-94.703125v161.8125c0 13.1875-10.730468 23.917969-23.917968 23.917969h-265.308594c-13.191406 0-23.921875-10.726562-23.921875-23.917969v-24.847656c0-4.199219-3.402344-7.601563-7.601563-7.601563-4.203124 0-7.605468 3.402344-7.605468 7.601563v24.847656c0 21.574219 17.554687 39.128907 39.128906 39.128907h265.308594c21.574218 0 39.128906-17.554688 39.128906-39.128907v-179.105469c0-22.082031-17.96875-40.046874-40.050781-40.046874h-60.757813c-4.199218 0-7.605468 3.402343-7.605468 7.601562s3.40625 7.605469 7.605468 7.605469zm0 0"/><path d="m384.710938 357.871094c1.421874 1.183594 3.148437 1.761718 4.863281 1.761718 2.179687 0 4.34375-.933593 5.847656-2.738281 2.6875-3.226562 2.25-8.023437-.976563-10.710937l-76.386718-63.589844c-3.230469-2.6875-8.023438-2.25-10.707032.980469-2.6875 3.226562-2.25 8.019531.976563 10.707031zm0 0"/><path d="m122.429688 359.632812c1.714843 0 3.441406-.578124 4.863281-1.761718l76.371093-63.589844c3.230469-2.683594 3.667969-7.480469.980469-10.707031-2.6875-3.230469-7.484375-3.667969-10.710937-.980469l-76.375 63.589844c-3.226563 2.6875-3.664063 7.484375-.976563 10.710937 1.503907 1.804688 3.667969 2.738281 5.847657 2.738281zm0 0"/><path d="m437.019531 74.957031c-15.457031-15.457031-32.632812-28.757812-51.238281-39.714843l33.742188-6.316407c4.128906-.769531 6.847656-4.746093 6.078124-8.871093-.777343-4.128907-4.753906-6.84375-8.875-6.074219l-54.667968 10.230469c-2.097656.394531-3.933594 1.648437-5.058594 3.460937-1.125 1.808594-1.441406 4.011719-.867188 6.0625l15.304688 54.671875c.941406 3.359375 3.992188 5.554688 7.316406 5.554688.679688 0 1.371094-.089844 2.054688-.285157 4.042968-1.128906 6.40625-5.324219 5.273437-9.371093l-10.460937-37.367188c18.441406 10.566406 35.425781 23.554688 50.644531 38.769531 45.480469 45.480469 70.527344 105.949219 70.527344 170.269531 0 64.316407-25.046875 124.785157-70.527344 170.265626-27.207031 27.207031-59.425781 46.976562-95.761719 58.765624-34.664062 11.242188-72.117187 14.492188-108.304687 9.390626-4.160157-.582032-8.003907 2.308593-8.59375 6.46875-.585938 4.160156 2.3125 8.003906 6.46875 8.589843 11.828125 1.667969 23.78125 2.496094 35.734375 2.496094 26.929687 0 53.871094-4.203125 79.390625-12.480469 38.640625-12.535156 72.898437-33.554687 101.820312-62.476562 48.351563-48.355469 74.980469-112.640625 74.980469-181.019532 0-68.382812-26.628906-132.667968-74.980469-181.019531zm0 0"/><path d="m140.5625 423.542969c-1.132812-4.042969-5.328125-6.40625-9.371094-5.273438-4.042968 1.132813-6.40625 5.328125-5.273437 9.375l10.460937 37.367188c-18.441406-10.566407-35.429687-23.554688-50.644531-38.769531-45.480469-45.480469-70.527344-105.949219-70.527344-170.265626 0-64.320312 25.046875-124.789062 70.527344-170.265624 27.632813-27.632813 61.832031-48.296876 98.90625-59.761719 35.898437-11.101563 74.503906-13.660157 111.640625-7.394531 4.148438.703124 8.0625-2.089844 8.761719-6.230469s-2.089844-8.0625-6.230469-8.765625c-39.46875-6.65625-80.5-3.941406-118.664062 7.859375-39.425782 12.195312-75.792969 34.164062-105.167969 63.539062-48.351563 48.351563-74.980469 112.636719-74.980469 181.019531 0 68.378907 26.628906 132.667969 74.980469 181.019532 15.453125 15.453125 32.628906 28.753906 51.238281 39.710937l-33.746094 6.316407c-4.125.773437-6.847656 4.746093-6.074218 8.871093.683593 3.65625 3.878906 6.207031 7.464843 6.207031.464844 0 .9375-.042968 1.410157-.128906l54.667968-10.234375c2.097656-.390625 3.933594-1.648437 5.058594-3.457031 1.125-1.8125 1.441406-4.011719.867188-6.066406zm0 0"/></svg>